<?xml version="1.0" standalone="no"?>
<!DOCTYPE svg PUBLIC "-//W3C//DTD SVG 20010904//EN"
 "http://www.w3.org/TR/2001/REC-SVG-20010904/DTD/svg10.dtd">
<svg version="1.0" xmlns="http://www.w3.org/2000/svg"
 width="512.000000pt" height="512.000000pt" viewBox="0 0 512.000000 512.000000"
 preserveAspectRatio="xMidYMid meet">
<metadata>
Created by potrace 1.14, written by Peter Selinger 2001-2017
</metadata>
<g transform="translate(0.000000,512.000000) scale(0.100000,-0.100000)"
fill="#000000" stroke="none">
<path d="M2258 5111 c-1 -6 -41 -15 -88 -20 -112 -14 -260 -48 -365 -83 -16
-5 -43 -14 -60 -18 -43 -12 -115 -38 -152 -55 -17 -8 -34 -15 -37 -15 -8 0
-217 -103 -276 -137 -363 -204 -736 -576 -938 -933 -37 -67 -142 -277 -142
-286 0 -3 -7 -20 -15 -37 -17 -37 -43 -109 -55 -152 -4 -16 -13 -43 -18 -60
-35 -105 -69 -253 -83 -365 -5 -47 -14 -86 -20 -88 -12 -5 -12 -569 0 -574 6
-1 15 -41 20 -88 11 -86 30 -180 57 -280 31 -112 57 -195 66 -205 4 -5 8 -16
8 -25 1 -8 9 -33 20 -55 11 -22 19 -44 20 -48 0 -17 95 -205 148 -297 337
-576 905 -1010 1537 -1173 270 -70 369 -82 665 -82 259 0 320 6 530 51 765
163 1420 679 1756 1379 118 247 178 443 231 750 26 145 25 566 0 720 -84 515
-278 937 -603 1311 -179 206 -397 387 -634 526 -92 53 -280 148 -297 148 -4 1
-26 9 -48 20 -22 11 -47 19 -55 20 -9 0 -20 4 -25 8 -10 9 -93 35 -205 66
-100 27 -194 46 -280 57 -47 5 -86 14 -88 20 -2 5 -118 9 -287 9 -169 0 -285
-4 -287 -9z m448 -1285 c27 -8 73 -17 103 -20 58 -8 295 -97 323 -123 27 -24
23 -69 -7 -89 -28 -18 -40 -16 -184 34 -64 22 -351 21 -423 -1 -29 -8 -80 -23
-113 -32 -167 -47 -342 -174 -472 -342 -54 -69 -147 -260 -172 -354 -21 -77
-29 -229 -12 -229 8 0 63 21 106 40 11 5 61 25 110 45 50 20 104 42 120 50 17
7 71 30 120 50 50 20 115 47 145 60 30 13 111 45 180 71 69 25 148 55 175 66
112 43 495 163 650 203 28 8 77 21 110 30 33 9 89 23 125 30 36 8 94 21 130
29 36 7 90 19 120 26 30 6 75 16 100 22 72 16 228 38 315 44 58 5 101 2 154
-10 142 -32 166 -80 90 -178 -70 -89 -126 -137 -349 -293 -82 -58 -323 -195
-342 -195 -9 0 -25 14 -33 30 -17 34 -65 191 -65 215 0 8 -9 24 -20 35 -24 24
-12 27 -265 -46 -49 -15 -112 -32 -140 -39 -27 -7 -63 -18 -80 -23 -16 -6 -84
-27 -150 -48 -144 -44 -200 -63 -325 -108 -206 -74 -290 -106 -400 -151 -63
-26 -135 -55 -160 -65 -45 -17 -109 -46 -225 -99 -33 -16 -84 -39 -112 -52
-68 -30 -68 -41 -1 -175 45 -92 71 -130 155 -230 10 -12 59 -57 110 -100 127
-110 230 -160 433 -209 198 -49 420 -20 623 83 76 38 245 161 287 209 54 61
98 121 135 181 40 68 66 86 103 69 42 -19 38 -49 -26 -180 -67 -137 -203 -323
-281 -385 -26 -21 -69 -56 -96 -79 -62 -52 -241 -145 -354 -183 -186 -62 -185
-62 -362 -57 -289 9 -444 52 -786 221 -347 171 -502 206 -793 180 -220 -19
-319 -18 -369 4 -51 23 -81 61 -81 102 0 39 45 106 96 145 21 16 45 36 54 45
8 8 29 25 45 38 17 13 48 40 70 61 22 20 62 54 90 76 169 135 263 263 341 465
14 36 29 74 34 85 5 11 21 49 35 85 111 276 223 462 372 617 130 136 341 266
481 298 31 7 91 21 132 30 145 34 345 44 426 21z"/>
</g>
</svg>
